# ProBuilder 4.5.2
# https://unity3d.com/unity/features/worldbuilding/probuilder
# 2021-11-18 4:27:57 PM

mtllib ./AltspacePersonSizeReference.mtl
o AltspacePersonSizeReference

g Cube
v -8.5 0 -21.93
v -9.586872 0 -21.93
v -8.5 2 -21.93
v -9.586872 2 -21.93
v -9.586872 0 -22.85958
v -9.586872 2 -22.85958
v -8.5 0 -22.85958
v -8.5 2 -22.85958

vt 0 0
vt -2 0
vt 0 2
vt -2 2
vt 2 0
vt 2 2
vt 0 -2
vt 2 -2
vt -2 -2

vn 0 0 1
vn -1 0 0
vn 0 0 -1
vn 1 0 0
vn 0 1 0
vn 0 -1 0

usemtl Lit
f 3/3/1 4/4/1 2/2/1 1/1/1
f 4/3/2 6/4/2 5/2/2 2/1/2
f 6/6/3 8/3/3 7/1/3 5/5/3
f 8/6/4 3/3/4 1/1/4 7/5/4
f 8/7/5 6/8/5 4/5/5 3/1/5
f 1/1/6 2/2/6 5/9/6 7/7/6

